<svg xmlns="http://www.w3.org/2000/svg" viewBox="0 0 512 512">
  <defs>
    <linearGradient id="bg" x1="64" x2="448" y1="64" y2="448" gradientUnits="userSpaceOnUse">
      <stop offset="0" stop-color="#FFF3DE"/>
      <stop offset="1" stop-color="#E5EEFF"/>
    </linearGradient>
  </defs>
  <rect width="512" height="512" rx="132" fill="url(#bg)"/>
  <rect x="82" y="82" width="348" height="348" rx="104" fill="#FFFFFF" opacity="0.92"/>
  <path d="M154 246 256 162l102 84v116a26 26 0 0 1-26 26h-47v-84h-58v84h-47a26 26 0 0 1-26-26V246Z" fill="#6671C9"/>
  <path d="M132 244a18 18 0 0 1 0-28l112-92a18 18 0 0 1 24 0l112 92a18 18 0 1 1-23 28l-101-83-101 83a18 18 0 0 1-23 0Z" fill="#4E5AB5"/>
  <circle cx="346" cy="182" r="44" fill="#FFC96F"/>
  <path d="M327 182h38M346 163v38" stroke="#8A5A00" stroke-linecap="round" stroke-width="12"/>
</svg>
