<svg xmlns="http://www.w3.org/2000/svg" viewBox="0 0 512 512">
  <defs>
    <radialGradient id="bg" cx="50%" cy="35%" r="75%">
      <stop offset="0" stop-color="#FFF8EC"/>
      <stop offset="1" stop-color="#D9E7FF"/>
    </radialGradient>
  </defs>
  <rect width="512" height="512" rx="160" fill="url(#bg)"/>
  <circle cx="256" cy="256" r="166" fill="#FFFFFF" opacity="0.96"/>
  <path d="M186 258 256 199l70 59v92a20 20 0 0 1-20 20h-33v-66h-34v66h-33a20 20 0 0 1-20-20v-92Z" fill="#6671C9"/>
  <path d="M169 257a16 16 0 0 1 0-24l76-64a17 17 0 0 1 22 0l76 64a16 16 0 1 1-21 25l-66-55-66 55a16 16 0 0 1-21-1Z" fill="#4E5AB5"/>
  <circle cx="322" cy="196" r="34" fill="#FFC96F"/>
  <path d="M307 196h30M322 181v30" stroke="#8A5A00" stroke-linecap="round" stroke-width="10"/>
</svg>
